<svg width="40" height="40" viewBox="0 0 40 40" fill="none" xmlns="http://www.w3.org/2000/svg">
<rect width="40" height="40" rx="5" fill="#0284C7"/>
<path d="M29.677 24.9596L26.547 17.6496C25.487 15.1696 23.537 15.0696 22.227 17.4296L20.337 20.8396C19.377 22.5696 17.587 22.7196 16.347 21.1696L16.127 20.8896C14.837 19.2696 13.017 19.4696 12.087 21.3196L10.367 24.7696C9.157 27.1696 10.907 29.9996 13.587 29.9996H26.347C28.947 29.9996 30.697 27.3496 29.677 24.9596Z" stroke="white" stroke-width="1.5" stroke-linecap="round" stroke-linejoin="round"/>
<path d="M14.9687 16C16.6256 16 17.9688 14.6569 17.9688 13C17.9688 11.3431 16.6256 10 14.9687 10C13.3119 10 11.9688 11.3431 11.9688 13C11.9688 14.6569 13.3119 16 14.9687 16Z" stroke="white" stroke-width="1.5" stroke-linecap="round" stroke-linejoin="round"/>
</svg>
