<svg width="100" height="100" viewBox="0 0 100 100" fill="none" xmlns="http://www.w3.org/2000/svg">
<path d="M87.4974 29.1663H74.9974C72.7873 29.1663 70.6676 28.2884 69.1048 26.7256C67.542 25.1628 66.6641 23.0431 66.6641 20.833V8.33301" stroke="#0EA5E9" stroke-width="4" stroke-linecap="round" stroke-linejoin="round"/>
<path d="M87.5026 24.9997V52.083C87.5026 55.4163 84.5859 58.333 81.2526 58.333H52.0859C48.7526 58.333 45.8359 55.4163 45.8359 52.083V14.583C45.8359 11.2497 48.7526 8.33301 52.0859 8.33301H70.8359L87.5026 24.9997Z" stroke="#0EA5E9" stroke-width="4" stroke-linecap="round" stroke-linejoin="round"/>
<path d="M29.1641 33.333V69.9997C29.1641 71.2497 29.9974 72.4997 30.8307 73.333C31.6641 74.1663 32.9141 74.9997 34.1641 74.9997H62.4974" stroke="#0EA5E9" stroke-width="4" stroke-linecap="round" stroke-linejoin="round"/>
<path d="M12.5 50V86.6667C12.5 87.9167 13.3333 89.1667 14.1667 90C15 90.8333 16.25 91.6667 17.5 91.6667H45.8333" stroke="#0EA5E9" stroke-width="4" stroke-linecap="round" stroke-linejoin="round"/>
</svg>
